<svg xmlns="http://www.w3.org/2000/svg" width="50.125" height="38.875" xmlns:v="https://vecta.io/nano"><path d="M.157 28.674a1.13 1.13 0 0 0 .622.387l48.041 9.8c.319.062.65-.015.908-.212.236-.194.354-.497.31-.8h0L43.787.77a.96.96 0 0 0-.449-.645c-.304-.137-.648-.155-.965-.051L7.179 14.118a.9.9 0 0 0-.507.452C6.501 14.895.178 27.646.089 27.827c-.14.272-.114.601.068.847zm45.586 6.436l-20.05-11.145 10.339-2.159zm-37.7-18.883l12.526 6.983-17.833 3.715zm1.662-1.172L41.24 2.468l-5.558 17.587-12.371 2.584zM47.363 34.05l-9.779-13.4 4.9-15.52zm-3.886 1.9L5.426 28.187l17.523-3.65z" fill="#a3bbc8" fill-rule="evenodd"/></svg>