<svg xmlns="http://www.w3.org/2000/svg" width="18.94" height="16.969" xmlns:v="https://vecta.io/nano"><path d="M5.53 16.978c-1.145 0-2.073-.928-2.073-2.074s.928-2.073 2.073-2.073h0c.547-.002 1.073.214 1.46.6a2.03 2.03 0 0 1 .61 1.466 2.07 2.07 0 0 1-2.07 2.081zm0-2.963h0a.89.89 0 0 0-.629 1.518.89.89 0 0 0 .969.192.9.9 0 0 0 .55-.824.92.92 0 0 0-.26-.629.9.9 0 0 0-.63-.257zm8.39 2.963c-.548.002-1.074-.217-1.46-.607a2.07 2.07 0 0 1 1.46-3.54h0c.553-.017 1.087.201 1.47.6.485.492.695 1.192.561 1.869s-.595 1.244-1.231 1.514c-.253.107-.525.162-.8.164zm0-2.963h0a.98.98 0 0 0-.82.548c-.139.332-.064.715.191.969s.637.33.969.192a.89.89 0 0 0 .29-1.452.9.9 0 0 0-.63-.257zm-11.27.164a.56.56 0 0 1-.25-.056.59.59 0 0 1-.29-.787c.552-1.217 1.719-2.04 3.05-2.151L4.11 5.794a.59.59 0 1 1 1.16-.228l1.09 5.578h9.43l1.8-6.771H4.29C2.148 4.365.332 2.797.01.68-.015.526.023.368.115.242S.346.031.5.007a.6.6 0 0 1 .68.5 3.16 3.16 0 0 0 3.11 2.682h14.07a.58.58 0 0 1 .47.232c.114.145.155.334.11.513l-2.13 7.956a.59.59 0 0 1-.57.44H5.88a2.67 2.67 0 0 0-2.7 1.51c-.096.206-.303.338-.53.338z" fill="#243f4d" fill-rule="evenodd"/></svg>