<svg xmlns="http://www.w3.org/2000/svg" width="17.87" height="15.531" xmlns:v="https://vecta.io/nano"><path d="M8.94 15.526a.73.73 0 0 1-.28-.056C8.31 15.32.01 11.721.01 4.71A28.18 28.18 0 0 0 13.06.003a4.82 4.82 0 0 1 4.81 4.684c0 7.034-8.29 10.634-8.65 10.783a.7.7 0 0 1-.28.056zM4.83 1.388a3.43 3.43 0 0 0-3.41 3.346c0 5.407 6.13 8.662 7.52 9.334 1.4-.672 7.52-3.93 7.52-9.358-.051-1.849-1.567-3.319-3.417-3.312S9.688 2.885 9.65 4.734a.71.71 0 0 1-.71.669h0c-.376.003-.686-.293-.7-.669a3.43 3.43 0 0 0-3.41-3.347z" fill="#243f4d" fill-rule="evenodd"/></svg>