<svg xmlns="http://www.w3.org/2000/svg" width="15.28" height="15.281" xmlns:v="https://vecta.io/nano"><path d="M2.98 6.076c.164-.039.337-.01.479.082s.24.237.271.403c.087.569.361 1.094.78 1.489.414.394.93.663 1.49.777.338.073.556.403.49.743a.65.65 0 0 1-.72.515 4.21 4.21 0 0 1-2.14-1.13c-.58-.585-.973-1.328-1.13-2.136a.6.6 0 0 1 .48-.743zM6.26 0c1.663-.003 3.258.654 4.436 1.827s1.841 2.767 1.844 4.43c.003.898-.192 1.785-.57 2.6l2.34 2.036c1.7 1.746.74 3.266.29 3.717-.42.454-1.99 1.414-3.73-.292l-2.06-2.35A6.26 6.26 0 0 1 .432 3.91 6.26 6.26 0 0 1 6.26 0zm5.55 13.517a1.35 1.35 0 0 0 1.88.226c.224-.277.326-.632.282-.986s-.228-.674-.512-.888l-2.16-1.88c-.385.515-.847.967-1.37 1.34zm-5.55-2.312a4.95 4.95 0 0 0 4.926-4.963 4.95 4.95 0 0 0-4.955-4.933A4.95 4.95 0 0 0 1.29 6.257c.011 2.736 2.234 4.947 4.97 4.943z" fill="#243f4d" fill-rule="evenodd"/></svg>